PathFileType	4	(X/Y/Z)	s05c0302.trc
DataRate	CameraRate	NumFrames	NumMarkers	Units	OrigDataRate	OrigDataStartFrame	OrigNumFrames
200	200	4	49	mm	200	750	2000
Frame#	Time	racr			lacr			c7			jug			rlel			rdr			llel			ldr			s2			lic			ric			lasi			rasi			rpsi			lpsi			rgt			lgt			rth1			rth2			rth3			rth4			rlfc			rsh1			rsh2			rsh3			rsh4			rlmal			rmmal			rcal			rtoe			rmt5			lth1			lth2			lth4			lth3			llfc			lmfc			lsh1			lsh2			lsh3			lsh4			llmal			lmmal			lcal			ltoe			lmt5			SBIKE			LBIKE			RBIKE			
		X1	Y1	Z1	X2	Y2	Z2	X3	Y3	Z3	X4	Y4	Z4	X5	Y5	Z5	X6	Y6	Z6	X7	Y7	Z7	X8	Y8	Z8	X9	Y9	Z9	X10	Y10	Z10	X11	Y11	Z11	X12	Y12	Z12	X13	Y13	Z13	X14	Y14	Z14	X15	Y15	Z15	X16	Y16	Z16	X17	Y17	Z17	X18	Y18	Z18	X19	Y19	Z19	X20	Y20	Z20	X21	Y21	Z21	X22	Y22	Z22	X23	Y23	Z23	X24	Y24	Z24	X25	Y25	Z25	X26	Y26	Z26	X27	Y27	Z27	X28	Y28	Z28	X29	Y29	Z29	X30	Y30	Z30	X31	Y31	Z31	X32	Y32	Z32	X33	Y33	Z33	X34	Y34	Z34	X35	Y35	Z35	X36	Y36	Z36	X37	Y37	Z37	X38	Y38	Z38	X39	Y39	Z39	X40	Y40	Z40	X41	Y41	Z41	X42	Y42	Z42	X43	Y43	Z43	X44	Y44	Z44	X45	Y45	Z45	X46	Y46	Z46	X47	Y47	Z47	X48	Y48	Z48	X49	Y49	Z49	
750	3.7500	791.491304	1249.873682	-208.916368	749.546985	1315.321649	-491.628632	766.673506	1360.587393	-349.282298	705.570968	1206.945188	-361.816661	616.672058	1117.615509	-9.111135	710.566791	931.596315	-95.796733	555.398546	1106.307150	-598.361547	694.223798	919.425709	-489.680321	184.066108	1232.882711	-271.809414	307.113133	1255.681948	-426.578302	351.581608	1195.637936	-152.323189	344.481997	1187.206850	-406.942975	370.638542	1136.163137	-193.057168	232.796377	1263.251558	-222.159726	223.829637	1284.605497	-307.628507	252.503602	1077.111954	-139.102493	240.715500	1164.378351	-464.858076	275.463986	970.055519	-119.311534	304.007350	885.475844	-115.916973	285.940405	799.065423	-119.305279	339.847664	887.682766	-125.510487	312.625171	653.079925	-141.342497	251.800090	566.006385	-105.894144	245.745122	477.757286	-114.089110	200.407766	405.116018	-113.838830	274.802093	470.371026	-139.324949	165.963311	273.970630	-117.230640	183.932035	295.372269	-196.436769	92.269831	264.819075	-160.185827	361.935555	138.305652	-159.516050	260.440186	154.622181	-92.157018	343.718990	1062.485557	-492.503959	423.746473	1031.685094	-490.702957	445.272036	1056.687006	-471.378354	480.049697	960.954237	-497.894442	567.148282	842.770052	-469.634812	553.591483	829.890602	-359.676333	460.693242	787.783870	-488.455050	397.705978	729.181250	-474.092096	311.405537	708.496775	-471.466320	414.698608	702.374793	-452.309757	209.488586	642.007338	-460.220351	245.551927	642.872389	-387.078528	143.844578	673.503218	-422.092464	257.762511	403.357074	-389.064060	191.440946	480.966781	-464.806820	-170.241917	899.254088	-275.936607	-53.234535	79.543726	-474.694889	-53.290309	79.211893	-77.082922	
751	3.7550	791.074284	1249.679338	-211.693772	748.577298	1313.789258	-494.835227	766.261423	1359.679038	-352.527591	704.233506	1206.357180	-364.315326	617.671603	1118.075412	-10.216562	710.368289	931.224396	-95.655496	553.212594	1104.751962	-599.403746	694.118898	919.715545	-489.910062	184.996722	1233.189604	-267.415566	305.169755	1257.092721	-423.602776	354.798850	1194.842863	-150.798364	343.470234	1188.813877	-405.249556	370.507315	1134.860667	-195.842197	234.557034	1263.212800	-217.801373	224.122246	1284.787855	-302.651435	254.467130	1077.384555	-136.770588	239.570946	1166.409083	-461.736636	274.543549	971.040073	-116.897135	301.481997	885.957463	-113.111282	281.747307	799.945586	-115.776905	337.432984	887.382592	-122.377073	305.661723	652.822704	-138.423509	245.107465	566.090460	-103.075351	238.524172	477.838043	-111.252230	193.048388	405.290030	-111.062057	267.662364	470.535392	-136.335120	158.971714	273.649210	-115.119001	176.584317	295.466057	-194.036272	85.132751	266.304371	-157.411171	351.624861	133.392824	-160.414942	251.404746	151.594078	-91.719160	343.738649	1066.336501	-490.848494	424.299018	1037.193803	-489.668180	445.310916	1062.394586	-470.104126	482.073642	967.703569	-497.933831	571.896694	851.249740	-470.868479	559.599624	837.037157	-360.652296	466.821866	795.113870	-489.130800	404.550292	735.839452	-474.607885	318.486119	714.114177	-471.756366	421.988451	708.998578	-453.291023	216.706802	645.442292	-459.599058	252.951384	647.037438	-386.006726	150.688167	675.711351	-421.254280	269.496927	407.926508	-389.539514	201.585455	484.287181	-464.767488	-169.805869	900.465354	-272.761353	-53.249980	79.586114	-474.678242	-53.276823	79.222850	-77.079771	
752	3.7600	790.747094	1249.378145	-214.444453	747.773118	1312.147557	-497.897641	765.756242	1358.757514	-355.672444	702.890067	1205.695488	-366.582120	618.416024	1118.669568	-11.443084	710.649075	930.893666	-95.693546	550.926456	1102.905798	-599.768471	694.196643	920.014734	-490.009646	186.169438	1233.762902	-263.027765	303.221028	1258.628302	-420.315536	357.779808	1194.426431	-149.324784	342.445026	1190.581510	-403.499655	372.478519	1134.789454	-195.032758	236.099489	1263.391395	-214.468741	224.254725	1285.490838	-298.111126	256.483398	1077.901591	-134.722128	238.321691	1168.495993	-458.672643	274.023910	972.595952	-114.707902	299.436157	886.956605	-110.067124	278.113056	801.371240	-112.836975	335.391621	887.771356	-119.458962	299.412074	653.150770	-135.706167	238.766637	566.745837	-100.359592	231.935432	478.537184	-108.548789	186.246252	406.105450	-108.224151	261.070507	471.060301	-133.572744	152.360026	274.221587	-112.762161	169.880413	295.720912	-191.529566	78.201818	268.530535	-154.205701	341.223420	129.252147	-161.563281	242.368581	149.274069	-91.336243	343.459829	1070.185708	-488.838266	424.673217	1042.520850	-488.248410	445.316910	1067.837923	-468.410135	483.637878	974.283096	-497.507593	576.149087	859.545477	-471.838534	565.107843	844.528860	-361.356124	472.390798	802.090568	-489.580963	410.964060	741.952017	-474.933827	325.210468	719.161589	-471.687950	428.892112	715.171336	-454.032504	223.800811	648.150868	-459.032319	260.488997	650.170728	-385.779538	157.483044	677.040161	-420.439981	281.095867	411.375904	-389.666378	211.674791	486.935727	-464.842959	-170.181661	899.348654	-275.756253	-53.236311	79.604834	-474.664865	-53.271319	79.215822	-77.058819	
753	3.7650	790.272049	1249.221708	-217.117366	747.175964	1310.300353	-500.994644	765.319958	1357.720659	-358.745868	701.594629	1205.063301	-368.732833	618.894502	1119.123223	-12.728877	710.841856	930.630038	-95.690028	548.688294	1101.068346	-600.139421	694.270623	920.432496	-489.917380	187.234653	1234.330772	-258.932259	301.366526	1260.360975	-417.577869	360.535286	1194.396930	-147.923272	341.364650	1192.510008	-401.603061	374.258706	1135.006854	-194.120957	238.705483	1263.594284	-211.185618	224.454933	1286.551459	-294.078838	258.787222	1078.426691	-132.702840	237.066466	1170.722516	-455.651243	273.932331	974.466678	-112.804011	297.985058	888.472020	-107.168601	275.145240	803.145175	-110.585111	334.361040	888.893646	-116.352020	294.097739	654.039286	-133.408215	233.279204	567.915490	-97.872517	225.856298	479.739138	-106.253985	180.001769	407.535415	-105.499258	255.346515	472.398089	-130.853978	146.031166	275.237748	-110.301422	162.802741	297.227419	-188.896132	71.473722	271.577273	-150.616990	330.591113	125.441855	-162.881336	233.461640	147.556077	-90.904009	342.854778	1073.990839	-486.541233	424.540296	1047.768254	-486.852817	445.117470	1073.275873	-466.588512	484.621538	980.596730	-496.790690	579.432795	867.707849	-473.572522	569.994728	852.220244	-361.700059	477.360187	808.440115	-489.809131	416.855095	747.372019	-475.076070	331.456628	723.414780	-471.393956	435.246404	720.840766	-454.513705	230.728361	650.042926	-458.325804	268.036108	652.387770	-385.253829	164.105428	677.695772	-419.594389	292.726512	414.211547	-389.953168	221.719425	488.915357	-464.945812	-169.899138	900.456273	-272.675948	-53.254072	79.616373	-474.665770	-53.286549	79.234138	-77.022976	
